{
  "asset": { "version": "2.0", "generator": "THREE.GLTFExporter r167" },
  "scenes": [{ "name": "AuxScene", "nodes": [1] }],
  "scene": 0,
  "nodes": [{ "mesh": 0 }, { "children": [0] }],
  "bufferViews": [
    {
      "buffer": 0,
      "byteOffset": 0,
      "byteLength": 88776,
      "target": 34962,
      "byteStride": 12
    },
    {
      "buffer": 0,
      "byteOffset": 88776,
      "byteLength": 88776,
      "target": 34962,
      "byteStride": 12
    },
    { "buffer": 0, "byteOffset": 177552, "byteLength": 11232, "target": 34963 },
    { "buffer": 0, "byteOffset": 188784, "byteLength": 3516, "target": 34963 },
    { "buffer": 0, "byteOffset": 192300, "byteLength": 48, "target": 34963 }
  ],
  "buffers": [
    {
      "byteLength": 192348,
      "uri": "data:application/octet-stream;base64,"
    }
  ],
  "accessors": [
    {
      "bufferView": 0,
      "componentType": 5126,
      "count": 7398,
      "max": [34.52132797241211, 60, 14.274881362915039],
      "min": [-34.52132797241211, -60, -14.274881362915039],
      "type": "VEC3"
    },
    {
      "bufferView": 1,
      "componentType": 5126,
      "count": 7398,
      "max": [1, 1, 1],
      "min": [-1, -1, -1],
      "type": "VEC3"
    },
    {
      "bufferView": 2,
      "componentType": 5123,
      "count": 5616,
      "max": [5615],
      "min": [0],
      "type": "SCALAR"
    },
    {
      "bufferView": 3,
      "componentType": 5123,
      "count": 1758,
      "max": [7373],
      "min": [5616],
      "type": "SCALAR"
    },
    {
      "bufferView": 4,
      "componentType": 5123,
      "count": 24,
      "max": [7397],
      "min": [7374],
      "type": "SCALAR"
    }
  ],
  "materials": [
    {
      "pbrMetallicRoughness": {
        "baseColorFactor": [
          0.3813255030582456, 0.3419170485169749, 0.304992669144997, 1
        ],
        "metallicFactor": 0.5,
        "roughnessFactor": 0.5
      },
      "name": "mat0"
    },
    {
      "pbrMetallicRoughness": {
        "baseColorFactor": [0.1529254061575552, 0, 0.034339307506000935, 1],
        "metallicFactor": 0.5,
        "roughnessFactor": 0.5
      },
      "name": "mat1"
    },
    {
      "pbrMetallicRoughness": {
        "baseColorFactor": [0.0051820344353859255, 1, 0.13286832154414627, 1],
        "metallicFactor": 0.5,
        "roughnessFactor": 0.5
      },
      "name": "mat2"
    }
  ],
  "meshes": [
    {
      "primitives": [
        {
          "mode": 4,
          "attributes": { "POSITION": 0, "NORMAL": 1 },
          "indices": 2,
          "material": 0
        },
        {
          "mode": 4,
          "attributes": { "POSITION": 0, "NORMAL": 1 },
          "indices": 3,
          "material": 1
        },
        {
          "mode": 4,
          "attributes": { "POSITION": 0, "NORMAL": 1 },
          "indices": 4,
          "material": 2
        }
      ]
    }
  ]
}
